<svg id="Insta" xmlns="http://www.w3.org/2000/svg" xmlns:xlink="http://www.w3.org/1999/xlink" width="33" height="33" viewBox="0 0 33 33">
  <defs>
    <clipPath id="clip-path">
      <rect id="Rectangle_58" data-name="Rectangle 58" width="33" height="33"/>
    </clipPath>
  </defs>
  <g id="Group_398" data-name="Group 398" clip-path="url(#clip-path)">
    <path id="Path_3525" data-name="Path 3525" d="M16.582,3.7a1.935,1.935,0,1,0,1.935,1.935A1.935,1.935,0,0,0,16.582,3.7" transform="translate(8.656 2.188)"/>
    <path id="Path_3526" data-name="Path 3526" d="M13.475,5.263A8.127,8.127,0,1,0,21.6,13.39a8.135,8.135,0,0,0-8.127-8.127m0,13.332A5.206,5.206,0,1,1,18.68,13.39,5.212,5.212,0,0,1,13.475,18.6" transform="translate(3.161 3.11)"/>
    <path id="Path_3527" data-name="Path 3527" d="M23.087,33H9.912A9.923,9.923,0,0,1,0,23.088V9.912A9.922,9.922,0,0,1,9.912,0H23.087A9.923,9.923,0,0,1,33,9.912V23.088A9.924,9.924,0,0,1,23.087,33M9.912,3.1A6.814,6.814,0,0,0,3.1,9.912V23.088A6.815,6.815,0,0,0,9.912,29.9H23.087A6.817,6.817,0,0,0,29.9,23.088V9.912A6.816,6.816,0,0,0,23.087,3.1Z" transform="translate(0 -0.001)"/>
  </g>
</svg>
